<svg width="1200" height="1200" viewBox="0 0 1200 1200" fill="none" xmlns="http://www.w3.org/2000/svg">
<circle cx="600" cy="600" r="589.5" stroke="url(#paint0_linear_30_3)" stroke-width="21"/>
<path d="M746.453 415.466L933.134 228.785" stroke="black" stroke-width="18"/>
<path d="M742.863 910.888L935.527 718.224" stroke="black" stroke-width="18"/>
<path d="M262.998 910.888L416.172 757.714" stroke="black" stroke-width="18"/>
<path d="M268.981 420.253L452.072 237.162" stroke="black" stroke-width="18"/>
<path d="M744.06 429.826H265.391V908.495H744.06V429.826Z" stroke="black" stroke-width="18"/>
<path d="M453.268 240.751H931.937V719.421H621.999C618.942 785.846 602.29 781.012 553.789 719.421H510.709L453.268 628.473V240.751Z" stroke="black" stroke-width="18"/>
<circle cx="453.269" cy="231.178" r="64.1203" fill="black" stroke="black"/>
<circle cx="266.588" cy="415.466" r="64.1203" fill="black" stroke="black"/>
<circle cx="266.588" cy="908.495" r="64.1203" fill="black" stroke="black"/>
<circle cx="745.257" cy="415.466" r="64.1203" fill="black" stroke="black"/>
<circle cx="745.257" cy="908.495" r="64.1203" fill="black" stroke="black"/>
<circle cx="931.937" cy="231.178" r="64.1203" fill="black" stroke="black"/>
<circle cx="931.937" cy="719.421" r="64.1203" fill="black" stroke="black"/>
<path d="M343.341 632.02H311.874L304.881 509.902L493.685 513.391L598.576 736.693L595.079 632.02H560.116L556.619 509.902L668.503 460.939L715.34 496.839L703.466 632.02H668.503L658.014 789.029L500.677 796.007L416.765 618.064V750.649H458.721V789.029L355.141 876.184C355.141 876.184 349.444 848.301 335.994 839.088C323.888 830.794 298.897 833.104 298.897 833.104L318.866 743.671H350.334L343.341 632.02Z" fill="black" stroke="black"/>
<path d="M819.016 396.066C827.721 440.238 822.085 461.907 782.295 491.803V681.967H860.328C861.119 650.219 868.272 639.59 893.771 634.098V351.475C878.626 353.78 875.596 349.857 881.312 333.771L819.016 396.066Z" fill="black" stroke="black"/>
<path d="M572.459 952.787L533.771 994.754V1097.05L566.557 1144.26L596.721 1082.62L566.557 1097.05V1061.64H596.721V1038.69H566.557V994.754L596.721 1001.97L572.459 952.787Z" fill="black"/>
<path d="M669.508 1144.26L618.361 952.787C663.675 1009.82 689.467 1019.19 736.393 994.754L669.508 1144.26Z" fill="black"/>
<path fill-rule="evenodd" clip-rule="evenodd" d="M434.754 980.328V1082.62C464.538 1100.58 478.467 1091.74 502.295 1056.39V1001.97C472.465 972.649 458.012 969.926 434.754 980.328ZM457.049 1056.39V1007.21C469.88 998.207 475.337 1000.53 482.623 1015.08V1043.28C473.845 1056.24 468.286 1059.44 457.049 1056.39Z" fill="black"/>
<path d="M572.459 952.787L533.771 994.754V1097.05L566.557 1144.26L596.721 1082.62L566.557 1097.05V1061.64H596.721V1038.69H566.557V994.754L596.721 1001.97L572.459 952.787Z" stroke="black"/>
<path d="M669.508 1144.26L618.361 952.787C663.675 1009.82 689.467 1019.19 736.393 994.754L669.508 1144.26Z" stroke="black"/>
<path fill-rule="evenodd" clip-rule="evenodd" d="M434.754 980.328V1082.62C464.538 1100.58 478.467 1091.74 502.295 1056.39V1001.97C472.465 972.649 458.012 969.926 434.754 980.328ZM457.049 1056.39V1007.21C469.88 998.207 475.337 1000.53 482.623 1015.08V1043.28C473.845 1056.24 468.286 1059.44 457.049 1056.39Z" stroke="black"/>
<defs>
<linearGradient id="paint0_linear_30_3" x1="600" y1="0" x2="600" y2="1200" gradientUnits="userSpaceOnUse">
<stop stop-color="#EA2821"/>
<stop offset="0.705" stop-color="#4C89D8"/>
<stop offset="1" stop-color="#002B64"/>
</linearGradient>
</defs>
</svg>
